HIERARCHY
ROOT RootJoint
{
    OFFSET   0.000000   0.000000   0.000000
    CHANNELS 6 Xposition Yposition Zposition Xrotation Yrotation Zrotation
    JOINT pelvis_lowerback
    {
        OFFSET   0.000000   0.093605   0.000000
        CHANNELS 3 Xrotation Yrotation Zrotation
        JOINT lowerback_torso
        {
            OFFSET   0.000000   0.100000   0.000000
            CHANNELS 3 Xrotation Yrotation Zrotation
            JOINT torso_head
            {
                OFFSET   0.000000   0.282350   0.000000
                CHANNELS 3 Xrotation Yrotation Zrotation
                End Site
                {
                    OFFSET   0.000000   0.192650   0.000000
                }
            }
            JOINT rTorso_Clavicle
            {
                OFFSET  -0.001000   0.157500   0.000000
                CHANNELS 3 Xrotation Yrotation Zrotation
                JOINT rShoulder
                {
                    OFFSET  -0.117647   0.000000   0.000000
                    CHANNELS 3 Xrotation Yrotation Zrotation
                    JOINT rElbow
                    {
                        OFFSET  -0.245000   0.000000   0.000000
                        CHANNELS 3 Xrotation Yrotation Zrotation
                        JOINT rWrist
                        {
                            OFFSET  -0.240000   0.000000   0.000000
                            CHANNELS 3 Xrotation Yrotation Zrotation
                            End Site
                            {
                                OFFSET  -0.116353  -0.002500   0.000000
                            }
                        }
                    }
                }
            }
            JOINT lTorso_Clavicle
            {
                OFFSET   0.001000   0.157500   0.000000
                CHANNELS 3 Xrotation Yrotation Zrotation
                JOINT lShoulder
                {
                    OFFSET   0.117647   0.000000   0.000000
                    CHANNELS 3 Xrotation Yrotation Zrotation
                    JOINT lElbow
                    {
                        OFFSET   0.245000   0.000000   0.000000
                        CHANNELS 3 Xrotation Yrotation Zrotation
                        JOINT lWrist
                        {
                            OFFSET   0.240000   0.000000   0.000000
                            CHANNELS 3 Xrotation Yrotation Zrotation
                            End Site
                            {
                                OFFSET   0.116353  -0.002500   0.000000
                            }
                        }
                    }
                }
            }
        }
    }
    JOINT rHip
    {
        OFFSET  -0.100000  -0.051395   0.000000
        CHANNELS 3 Xrotation Yrotation Zrotation
        JOINT rKnee
        {
            OFFSET   0.000000  -0.410000   0.000000
            CHANNELS 3 Xrotation Yrotation Zrotation
            JOINT rAnkle
            {
                OFFSET   0.000000  -0.390000   0.000000
                CHANNELS 3 Xrotation Yrotation Zrotation
                JOINT rToeJoint
                {
                    OFFSET   0.000000  -0.050000   0.130000
                    CHANNELS 3 Xrotation Yrotation Zrotation
                    End Site
                    {
                        OFFSET  -0.010000   0.002000   0.060000
                    }
                }
            }
        }
    }
    JOINT lHip
    {
        OFFSET   0.100000  -0.051395   0.000000
        CHANNELS 3 Xrotation Yrotation Zrotation
        JOINT lKnee
        {
            OFFSET   0.000000  -0.410000   0.000000
            CHANNELS 3 Xrotation Yrotation Zrotation
            JOINT lAnkle
            {
                OFFSET   0.000000  -0.390000   0.000000
                CHANNELS 3 Xrotation Yrotation Zrotation
                JOINT lToeJoint
                {
                    OFFSET   0.000000  -0.050000   0.130000
                    CHANNELS 3 Xrotation Yrotation Zrotation
                    End Site
                    {
                        OFFSET   0.010000   0.002000   0.060000
                    }
                }
            }
        }
    }
}
MOTION
Frames: 17
Frame Time:   0.008333
 -2.376719   0.925631   3.975860   0.000000   0.000000   0.000000   0.000000   0.000000   0.000000   0.000000   0.000000   0.000000   0.000000   0.000000   0.000000   0.000000   0.000000   0.000000   0.000000   0.000000   0.000000   0.000000   0.000000   0.000000   0.000000   0.000000   0.000000   0.000000   0.000000   0.000000   0.000000   0.000000   0.000000   0.000000   0.000000   0.000000   0.000000   0.000000   0.000000   0.000000   0.000000   0.000000   0.000000   0.000000   0.000000   0.000000   0.000000   0.000000   0.000000   0.000000   0.000000   0.000000   0.000000   0.000000   0.000000   0.000000   0.000000   0.000000   0.000000   0.000000   0.000000   0.000000   0.000000
 -2.376855   0.926407   3.975285   0.780549   0.194877   0.048784  -0.980695   0.039872  -0.152416   0.263214  -0.252785   0.049786  -0.254156   0.159179   0.027037   0.376761  -0.364789   0.668967   0.938113   0.085409   1.926201   0.011477   0.515143  -0.006210   0.572442  -0.060001  -2.852803   0.455977   0.091200  -0.838214   1.475850   0.106008  -1.673471   0.006555  -0.292579   0.005105   0.551225  -0.056706   2.911948  -1.169832   0.237366  -0.079785   0.726430   0.000198   0.002732  -0.549976   0.003746  -0.040536  -0.154736  -0.000090  -0.000587  -1.207309  -0.338548   0.025047   0.902417  -0.000627  -0.001133  -1.018373   0.098270   0.030178   0.334473  -0.000312  -0.000135
 -2.377124   0.927687   3.974725   1.524187   0.454512   0.101962  -1.873202   0.047691  -0.333322   0.521302  -0.545872   0.074227  -0.506097   0.313412   0.053860   0.748592  -0.743543   2.133118   1.856754   0.169586   4.497069   0.025855   0.995147  -0.010742   1.181393  -0.071653  -4.911621   0.904040   0.153294  -2.471822   2.912215   0.167368  -3.973425   0.014762  -0.561905   0.008784   1.155437  -0.097202   5.048242  -2.319587   0.482440  -0.188745   1.435924   0.000536   0.005278  -1.065344   0.011216  -0.077739  -0.329616  -0.000194  -0.001246  -2.343920  -0.668469   0.102365   1.793236  -0.001667  -0.001435  -1.974747   0.189461   0.059527   0.583449  -0.000628  -0.000066
 -2.377517   0.928998   3.974245   2.227476   0.734356   0.155546  -2.692057   0.033407  -0.534311   0.773056  -0.849178   0.064242  -0.738092   0.457558   0.081306   1.107769  -1.097911   4.073207   2.753988   0.283729   7.493775   0.039428   1.437147  -0.013748   1.767999  -0.095397  -6.047874   1.323690   0.177351  -4.610675   4.254488   0.152895  -6.577750   0.022629  -0.814034   0.011246   1.741215  -0.149534   6.196825  -3.427609   0.717856  -0.317170   2.091317   0.000907   0.007113  -1.547720   0.018878  -0.112355  -0.500979  -0.000289  -0.001769  -3.382221  -0.977532   0.225333   2.630805  -0.002841  -0.001311  -2.868584   0.275388   0.088568   0.799648  -0.000935   0.000052
 -2.378003   0.929986   3.973871   2.895949   1.012706   0.206446  -3.450515   0.005572  -0.749661   1.011091  -1.152102   0.030449  -0.950398   0.592046   0.105310   1.455028  -1.420381   6.299581   3.607172   0.440350  10.688774   0.050644   1.847939  -0.015500   2.332168  -0.110598  -6.459237   1.711332   0.167451  -7.033526   5.503016   0.058052  -9.320767   0.029405  -1.054708   0.012842   2.308048  -0.247493   6.605575  -4.494636   0.942175  -0.459120   2.692541   0.001261   0.008251  -1.999382   0.026306  -0.144530  -0.667366  -0.000371  -0.002143  -4.327162  -1.268075   0.386087   3.417255  -0.003980  -0.001044  -3.703955   0.356195   0.117328   0.988565  -0.001196   0.000153
 -2.378533   0.930385   3.973619   3.532189   1.277451   0.252584  -4.159051  -0.031228  -0.971122   1.230307  -1.450101  -0.015130  -1.144233   0.717583   0.124358   1.790315  -1.714152   8.683864   4.393493   0.635075  13.892464   0.058879   2.231175  -0.016210   2.875557  -0.104310  -6.348942   2.065615   0.132678  -9.591620   6.658951  -0.108862 -12.093799   0.034740  -1.285609   0.013784   2.856801  -0.397757   6.513837  -5.519801   1.155540  -0.611157   3.243949   0.001575   0.008807  -2.422147   0.033407  -0.174394  -0.827190  -0.000442  -0.002374  -5.184226  -1.542116   0.575979   4.157495  -0.004980  -0.000771  -4.484448   0.431969   0.145706   1.154822  -0.001393   0.000219
 -2.379083   0.930008   3.973493   4.136846   1.521448   0.294406  -4.825625  -0.074034  -1.193810   1.428344  -1.740631  -0.069399  -1.321343   0.834750   0.140698   2.113925  -1.985392  11.112909   5.115550   0.858458  17.026862   0.064141   2.588372  -0.016133   3.397283  -0.079336  -5.914720   2.387518   0.082952 -12.181640   7.724858  -0.334041 -14.824164   0.038519  -1.506457   0.014213   3.385990  -0.592262   6.104990  -6.501622   1.358374  -0.770824   3.750526   0.001834   0.008916  -2.817650   0.040112  -0.202129  -0.978987  -0.000500  -0.002481  -5.958689  -1.801013   0.786886   4.855893  -0.005798  -0.000556  -5.213395   0.502830   0.173543   1.302617  -0.001528   0.000247
 -2.379611   0.928153   3.973143   4.391717   1.682546   0.176430  -5.072244  -0.118073  -1.162145   1.720124  -1.953236  -0.142112  -1.636060   0.760832   0.093686   2.417942  -1.921960  12.998280   5.894814   1.027931  19.709883   0.070698   3.078921  -0.018552   3.856513  -0.161366  -4.337365   2.658545   0.015537 -14.144664   8.614834  -0.817775 -17.357766   0.046970  -1.899825   0.017016   3.786575  -0.744610   4.639862  -7.250294   1.416866  -0.708124   4.784600   0.002131   0.009092  -3.382894   0.065207  -0.106613  -1.080081  -0.000347  -0.002204  -6.321414  -1.858657   1.162867   5.213928  -0.005502   0.000026  -5.693952   0.509097   0.252811   1.361514  -0.001408   0.000266
 -2.380098   0.925049   3.972676   4.597716   1.866478   0.036621  -5.263009  -0.171125  -1.105391   2.030522  -2.151685  -0.196816  -1.923325   0.684047   0.051210   2.669690  -1.776979  14.525485   6.598546   1.265133  22.046063   0.072644   3.557606  -0.020213   4.315782  -0.144514  -2.938824   2.880043  -0.122721 -15.767749   9.411953  -1.351214 -19.568566   0.051476  -2.293769   0.018978   4.182496  -1.044044   3.326344  -7.907467   1.457028  -0.603129   5.838967   0.002193   0.009373  -3.905299   0.087011  -0.016687  -1.164332  -0.000220  -0.001951  -6.693054  -1.909455   1.526519   5.507992  -0.005023   0.000494  -6.141650   0.514999   0.327268   1.432682  -0.001329   0.000317
 -2.380540   0.920838   3.972180   4.784717   2.056837  -0.101421  -5.425129  -0.216499  -1.047551   2.327533  -2.332774  -0.244301  -2.187404   0.612269   0.013384   2.880521  -1.597858  15.791494   7.235231   1.534702  24.108042   0.071446   4.016237  -0.021067   4.762069  -0.065008  -1.830168   3.064827  -0.291214 -17.134055  10.130432  -1.892989 -21.515251   0.052821  -2.671249   0.019947   4.563611  -1.394136   2.289022  -8.484098   1.492617  -0.484716   6.844641   0.002095   0.009552  -4.391192   0.106965   0.067705  -1.235057  -0.000120  -0.001720  -7.090271  -1.957805   1.854050   5.758360  -0.004474   0.000820  -6.559872   0.519941   0.396802   1.500786  -0.001236   0.000360
 -2.380937   0.920605   3.971930   4.884614   2.231661  -0.039741  -5.549669  -0.237735  -1.160778   2.637068  -2.486811  -0.354364  -2.429042   0.545895  -0.026746   3.045953  -1.382429  17.175949   7.802565   1.841719  26.062309   0.069631   4.449081  -0.021188   5.189875   0.006165  -0.996305   3.212601  -0.481976 -18.560616  10.773088  -2.441791 -23.322010   0.052984  -3.022898   0.020053   4.923112  -1.683105   1.545344  -9.110750   1.535181  -0.526729   7.870540   0.001754   0.009429  -4.591961   0.125344   0.146760  -1.188423  -0.000141  -0.001287  -7.603103  -1.943865   1.796907   6.422722  -0.003706   0.001840  -6.426193   0.567038   0.369912   1.643299  -0.001009   0.000585
 -2.381416   0.920482   3.972044   4.961202   2.398520   0.019933  -5.691080  -0.248175  -1.245087   2.909553  -2.621590  -0.470856  -2.648888   0.484116  -0.071753   3.200314  -1.187450  18.311688   8.323638   2.144782  27.856252   0.066212   4.862145  -0.020676   5.600795   0.149316  -0.123528   3.355042  -0.644820 -19.759090  11.360637  -2.965046 -24.989177   0.051491  -3.357559   0.019461   5.265990  -2.023940   0.759348  -9.584446   1.589125  -0.557358   8.732367   0.001406   0.009092  -5.026362   0.152438   0.199745  -1.201053  -0.000102  -0.001055  -7.968560  -1.962584   1.742479   6.949471  -0.003054   0.002196  -6.585491   0.577503   0.405397   1.746203  -0.000871   0.000613
 -2.382034   0.920361   3.972321   5.056595   2.558773   0.066159  -5.852275  -0.248038  -1.311958   3.139798  -2.738375  -0.576658  -2.860851   0.426636  -0.113177   3.342690  -1.006882  19.279094   8.803416   2.434175  29.468561   0.061632   5.247068  -0.019743   5.992105   0.297176   0.634676   3.491559  -0.787152 -20.796285  11.900920  -3.453005 -26.490610   0.048687  -3.666171   0.018368   5.589277  -2.346553   0.070484 -10.005198   1.620281  -0.520678   9.541576   0.000716   0.008608  -5.433640   0.165804   0.269506  -1.239000  -0.000026  -0.000908  -8.296442  -1.984442   1.711540   7.394943  -0.002552   0.002330  -6.774750   0.584470   0.442988   1.817325  -0.000747   0.000582
 -2.382804   0.920381   3.972391   5.163715   2.749399   0.078988  -5.856728  -0.248981  -1.406254   3.280918  -2.810981  -0.604000  -3.092618   0.283458  -0.167841   3.437219  -0.894699  19.863893   9.242858   2.739157  30.688596   0.056618   5.705998  -0.019536   6.263511   0.541892   1.918772   3.587253  -0.872957 -21.330533  12.186392  -3.979761 -27.741821   0.047762  -4.162036   0.017843   5.848064  -2.631543  -1.164902 -10.205968   1.702194  -0.486709   9.784824   0.000530   0.007468  -5.621038   0.154324   0.271429  -1.103066  -0.000104  -0.000421  -8.495850  -1.997749   1.724350   7.513186  -0.002076   0.002057  -6.788218   0.658276   0.563654   1.862201  -0.000664   0.000567
 -2.383698   0.920489   3.972166   5.340149   2.929532   0.074261  -5.828771  -0.240642  -1.495635   3.400522  -2.872745  -0.617571  -3.309879   0.148796  -0.219007   3.495810  -0.755314  20.173096   9.637935   3.039538  31.653799   0.050271   6.142958  -0.019206   6.516275   0.824794   2.954515   3.644614  -0.988949 -21.576555  12.436338  -4.481100 -28.729140   0.044438  -4.636255   0.017199   6.083420  -2.977600  -2.151699 -10.427596   1.768308  -0.435793   9.890101   0.000397   0.006206  -5.825012   0.134597   0.288415  -0.972049  -0.000185  -0.000077  -8.723267  -2.010829   1.760940   7.517572  -0.001662   0.001652  -6.835255   0.727285   0.680488   1.912005  -0.000607   0.000559
 -2.384682   0.920639   3.971727   5.556534   3.097605   0.060088  -5.765656  -0.229916  -1.576216   3.517794  -2.927728  -0.626272  -3.510127   0.023745  -0.267745   3.527330  -0.598544  20.286849   9.995493   3.329455  32.423380   0.043554   6.554635  -0.018713   6.756003   1.098932   3.706205   3.678146  -1.122731 -21.624626  12.661698  -4.948495 -29.514826   0.039896  -5.079336   0.016472   6.305871  -3.306754  -2.849061 -10.669019   1.826967  -0.374363   9.922612   0.000308   0.005032  -6.035526   0.114852   0.306264  -0.855971  -0.000242   0.000151  -8.967399  -2.026286   1.810885   7.453905  -0.001302   0.001231  -6.905031   0.790704   0.792289   1.954522  -0.000550   0.000531
 -2.385738   0.920809   3.971147   5.796250   3.255002   0.039851  -5.671639  -0.219213  -1.647575   3.640822  -2.977616  -0.631580  -3.693217  -0.092656  -0.314025   3.542240  -0.435952  20.263067  10.322638   3.603030  33.042624   0.037059   6.939913  -0.018060   6.984919   1.348397   4.230861   3.697719  -1.262435 -21.536816  12.868185  -5.379850 -30.147838   0.034972  -5.490819   0.015672   6.518447  -3.597188  -3.318877 -10.923536   1.879947  -0.305818   9.911302   0.000251   0.004004  -6.243710   0.095735   0.323979  -0.752090  -0.000280   0.000298  -9.219639  -2.043864   1.869876   7.346383  -0.000988   0.000844  -6.988439   0.848979   0.898753   1.991282  -0.000495   0.000492
